<svg width="400" height="400" xmlns="http://www.w3.org/2000/svg">
 <!-- Created with Method Draw - http://github.com/duopixel/Method-Draw/ -->

 <g>
  <title>background</title>
  <rect x="-1" y="-1" width="402" height="402" id="canvas_background" fill="none"/>
  <g id="canvasGrid" display="none">
   <rect id="svg_1" width="100%" height="100%" x="0" y="0" stroke-width="0" fill="url(#gridpattern)"/>
  </g>
 </g>
 <g>
  <title>Layer 1</title>
  <path id="svg_3" d="m93.003789,154.006512c24.613644,47.192838 29.418843,61.524648 21.280688,63.470958c-15.897342,3.802073 -12.702742,25.546701 9.548246,64.991822c27.905125,49.468525 82.562714,79.846705 133.903035,74.422084c19.927347,-2.105543 42.456098,-6.45086 50.063889,-9.656398c7.607751,-3.205577 2.939338,2.766053 -10.37427,13.27019c-66.602328,52.547655 -148.85915,48.887279 -214.482222,-9.544241c-26.165151,-23.297825 -62.164335,-91.367594 -62.164335,-117.5448c0,-7.415825 -5.935026,-14.60147 -13.18893,-15.96801c-11.86292,-2.234838 -10.269791,-8.119234 15.845888,-58.528241c15.969168,-30.824011 31.0015,-58.25467 33.405204,-60.957c2.403744,-2.702331 18.676994,22.517282 36.162821,56.043623l-0.000013,0.000013zm211.575458,90.981985c-24.613657,-47.192825 -29.418843,-61.524688 -21.280728,-63.470958c15.897342,-3.802006 12.702755,-25.546688 -9.548206,-64.991822c-27.905138,-49.468538 -82.562781,-79.846718 -133.903075,-74.42211c-19.927347,2.105516 -42.456058,6.450913 -50.063836,9.656464c-7.607791,3.205511 -2.939364,-2.766093 10.374244,-13.270217c66.602341,-52.547682 148.859163,-48.887332 214.482236,9.544268c26.165164,23.297746 62.164321,91.367567 62.164321,117.54472c0,7.415878 5.935079,14.60147 13.188904,15.96801c11.862973,2.234877 10.269805,8.119234 -15.845835,58.528268c-15.969155,30.823971 -31.001526,58.254643 -33.405204,60.957c-2.403757,2.702331 -18.676994,-22.517255 -36.162821,-56.04361l0,-0.000013z" stroke-opacity="null" stroke-width="1.5" stroke="#000" fill="#ff7f00"/>
 </g>
</svg>